# xmcd
#
# Track frame offsets:
#	150
#	14998
#	30076
#	43286
#	55890
#	67092
#	81732
#	97836
#	115555
#	130232
#	146391
#	164185
#	181258
#	191634
#	207554
#	225432
#	238699
#	252151
#	267703
#	284916
#	305672
#
# Disc length: 4238 seconds
#
# Revision: 1
# Processed by: cddbd v1.5.1PL2 Copyright (c) Steve Scherf et al.
# Submitted via: audiograbber 1.83.01
#
DISCID=46108c15
DTITLE=Bob Herring and Rafe Stefanini - Fresh Coat
DYEAR=2004
DGENRE=Country
TTITLE0=GREAT BIG TATERS IN THE SANDY LAND
TTITLE1=CHICKENS A CROWING
TTITLE2=DOWN THE ROAD
TTITLE3=THE CUCKOO'S NEST
TTITLE4=SHORTENIN' BREAD
TTITLE5=DRUNKEN MAN BLUES
TTITLE6=BELLS OF MECKLENBURG
TTITLE7=MY BABY LOVES SHORTENIN' BREAD
TTITLE8=LITTLE GAL FOOLED ME
TTITLE9=DAVEY COME ON HOME AND ACT LIKE YOU OUGHT TO
TTITLE10=KITTY KI
TTITLE11=DUSTY MILLER/MA FERGUSON
TTITLE12=JUNE APPLE
TTITLE13=NEW FIVE CENTS
TTITLE14=RATTLETRAP
TTITLE15=SMOKEY ROW
TTITLE16=LYDIA'S RAG
TTITLE17=PADDY ON THE TURNPIKE
TTITLE18=BITTER CREEK
TTITLE19=THE PLATTE RIVER WALTZ
TTITLE20=CINDY
EXTD=
EXTT0=
EXTT1=
EXTT2=
EXTT3=
EXTT4=
EXTT5=
EXTT6=
EXTT7=
EXTT8=
EXTT9=
EXTT10=
EXTT11=
EXTT12=
EXTT13=
EXTT14=
EXTT15=
EXTT16=
EXTT17=
EXTT18=
EXTT19=
EXTT20=
PLAYORDER=
